G04 #@! TF.GenerationSoftware,KiCad,Pcbnew,6.0.11-2627ca5db0~126~ubuntu22.04.1*
G04 #@! TF.CreationDate,2023-05-26T00:57:04+02:00*
G04 #@! TF.ProjectId,ELKS,454c4b53-2e6b-4696-9361-645f70636258,rev?*
G04 #@! TF.SameCoordinates,Original*
G04 #@! TF.FileFunction,Soldermask,Top*
G04 #@! TF.FilePolarity,Negative*
%FSLAX46Y46*%
G04 Gerber Fmt 4.6, Leading zero omitted, Abs format (unit mm)*
G04 Created by KiCad (PCBNEW 6.0.11-2627ca5db0~126~ubuntu22.04.1) date 2023-05-26 00:57:04*
%MOMM*%
%LPD*%
G01*
G04 APERTURE LIST*
G04 Aperture macros list*
%AMRoundRect*
0 Rectangle with rounded corners*
0 $1 Rounding radius*
0 $2 $3 $4 $5 $6 $7 $8 $9 X,Y pos of 4 corners*
0 Add a 4 corners polygon primitive as box body*
4,1,4,$2,$3,$4,$5,$6,$7,$8,$9,$2,$3,0*
0 Add four circle primitives for the rounded corners*
1,1,$1+$1,$2,$3*
1,1,$1+$1,$4,$5*
1,1,$1+$1,$6,$7*
1,1,$1+$1,$8,$9*
0 Add four rect primitives between the rounded corners*
20,1,$1+$1,$2,$3,$4,$5,0*
20,1,$1+$1,$4,$5,$6,$7,0*
20,1,$1+$1,$6,$7,$8,$9,0*
20,1,$1+$1,$8,$9,$2,$3,0*%
G04 Aperture macros list end*
%ADD10RoundRect,0.225000X-0.250000X0.225000X-0.250000X-0.225000X0.250000X-0.225000X0.250000X0.225000X0*%
%ADD11R,1.300000X0.700000*%
%ADD12RoundRect,0.150000X-0.587500X-0.150000X0.587500X-0.150000X0.587500X0.150000X-0.587500X0.150000X0*%
%ADD13RoundRect,0.218750X-0.256250X0.218750X-0.256250X-0.218750X0.256250X-0.218750X0.256250X0.218750X0*%
%ADD14RoundRect,0.135000X-0.185000X0.135000X-0.185000X-0.135000X0.185000X-0.135000X0.185000X0.135000X0*%
%ADD15RoundRect,0.225000X0.225000X0.250000X-0.225000X0.250000X-0.225000X-0.250000X0.225000X-0.250000X0*%
%ADD16R,2.500000X1.800000*%
%ADD17R,1.700000X1.700000*%
%ADD18O,1.700000X1.700000*%
%ADD19RoundRect,0.225000X-0.225000X-0.250000X0.225000X-0.250000X0.225000X0.250000X-0.225000X0.250000X0*%
%ADD20RoundRect,0.250000X-0.725000X0.600000X-0.725000X-0.600000X0.725000X-0.600000X0.725000X0.600000X0*%
%ADD21O,1.950000X1.700000*%
%ADD22RoundRect,0.140000X-0.170000X0.140000X-0.170000X-0.140000X0.170000X-0.140000X0.170000X0.140000X0*%
%ADD23RoundRect,0.200000X-1.800000X1.800000X-1.800000X-1.800000X1.800000X-1.800000X1.800000X1.800000X0*%
%ADD24RoundRect,0.225000X0.250000X-0.225000X0.250000X0.225000X-0.250000X0.225000X-0.250000X-0.225000X0*%
%ADD25RoundRect,0.140000X-0.140000X-0.170000X0.140000X-0.170000X0.140000X0.170000X-0.140000X0.170000X0*%
%ADD26RoundRect,0.150000X-0.625000X0.150000X-0.625000X-0.150000X0.625000X-0.150000X0.625000X0.150000X0*%
%ADD27RoundRect,0.250000X-0.650000X0.350000X-0.650000X-0.350000X0.650000X-0.350000X0.650000X0.350000X0*%
%ADD28O,2.720000X3.240000*%
%ADD29R,1.800000X1.800000*%
%ADD30C,1.800000*%
%ADD31RoundRect,0.140000X0.170000X-0.140000X0.170000X0.140000X-0.170000X0.140000X-0.170000X-0.140000X0*%
%ADD32RoundRect,0.200000X-0.200000X-0.275000X0.200000X-0.275000X0.200000X0.275000X-0.200000X0.275000X0*%
%ADD33C,0.650000*%
%ADD34R,1.150000X0.600000*%
%ADD35R,1.150000X0.300000*%
%ADD36O,2.100000X1.000000*%
%ADD37O,1.800000X1.000000*%
%ADD38RoundRect,0.150000X0.150000X-0.587500X0.150000X0.587500X-0.150000X0.587500X-0.150000X-0.587500X0*%
%ADD39RoundRect,0.150000X0.587500X0.150000X-0.587500X0.150000X-0.587500X-0.150000X0.587500X-0.150000X0*%
%ADD40C,1.524000*%
G04 APERTURE END LIST*
D10*
G04 #@! TO.C,R1*
X139650000Y-121325000D03*
X139650000Y-122875000D03*
G04 #@! TD*
D11*
G04 #@! TO.C,SW1*
X136850000Y-131450000D03*
X136850000Y-127800000D03*
X142450000Y-127800000D03*
X142450000Y-131450000D03*
G04 #@! TD*
D10*
G04 #@! TO.C,R28*
X173410000Y-94825000D03*
X173410000Y-96375000D03*
G04 #@! TD*
D12*
G04 #@! TO.C,Q4*
X174625000Y-121850000D03*
X174625000Y-123750000D03*
X176500000Y-122800000D03*
G04 #@! TD*
D13*
G04 #@! TO.C,D2*
X154650000Y-121312500D03*
X154650000Y-122887500D03*
G04 #@! TD*
D14*
G04 #@! TO.C,R14*
X142650000Y-121590000D03*
X142650000Y-122610000D03*
G04 #@! TD*
D10*
G04 #@! TO.C,R25*
X158170000Y-94825000D03*
X158170000Y-96375000D03*
G04 #@! TD*
D15*
G04 #@! TO.C,R20*
X123225000Y-123700000D03*
X121675000Y-123700000D03*
G04 #@! TD*
D16*
G04 #@! TO.C,D1*
X122150000Y-67600000D03*
X118150000Y-67600000D03*
G04 #@! TD*
D17*
G04 #@! TO.C,J3*
X112250000Y-98560000D03*
D18*
X109710000Y-98560000D03*
X112250000Y-101100000D03*
X109710000Y-101100000D03*
X112250000Y-103640000D03*
X109710000Y-103640000D03*
X112250000Y-106180000D03*
X109710000Y-106180000D03*
X112250000Y-108720000D03*
X109710000Y-108720000D03*
X112250000Y-111260000D03*
X109710000Y-111260000D03*
G04 #@! TD*
D19*
G04 #@! TO.C,C10*
X189230000Y-94850000D03*
X190780000Y-94850000D03*
G04 #@! TD*
D20*
G04 #@! TO.C,J5*
X190300000Y-117100000D03*
D21*
X190300000Y-119600000D03*
X190300000Y-122100000D03*
G04 #@! TD*
D14*
G04 #@! TO.C,R10*
X132650000Y-121590000D03*
X132650000Y-122610000D03*
G04 #@! TD*
D22*
G04 #@! TO.C,C4*
X145250000Y-129120000D03*
X145250000Y-130080000D03*
G04 #@! TD*
D23*
G04 #@! TO.C,BZ1*
X126900000Y-90100000D03*
X126900000Y-72100000D03*
G04 #@! TD*
D24*
G04 #@! TO.C,R39*
X153090000Y-73875000D03*
X153090000Y-72325000D03*
G04 #@! TD*
D25*
G04 #@! TO.C,R18*
X121920000Y-118700000D03*
X122880000Y-118700000D03*
G04 #@! TD*
D10*
G04 #@! TO.C,R34*
X142930000Y-72325000D03*
X142930000Y-73875000D03*
G04 #@! TD*
D22*
G04 #@! TO.C,C3*
X135150000Y-129120000D03*
X135150000Y-130080000D03*
G04 #@! TD*
D14*
G04 #@! TO.C,R12*
X162650000Y-121590000D03*
X162650000Y-122610000D03*
G04 #@! TD*
D26*
G04 #@! TO.C,J9*
X195925000Y-128600000D03*
X195925000Y-129600000D03*
X195925000Y-130600000D03*
X195925000Y-131600000D03*
D27*
X198450000Y-127300000D03*
X198450000Y-132900000D03*
G04 #@! TD*
D17*
G04 #@! TO.C,JP2*
X181650000Y-120140000D03*
D18*
X181650000Y-117600000D03*
X181650000Y-115060000D03*
G04 #@! TD*
D24*
G04 #@! TO.C,R29*
X160710000Y-96375000D03*
X160710000Y-94825000D03*
G04 #@! TD*
D28*
G04 #@! TO.C,RV2*
X185450000Y-133875000D03*
X175850000Y-133875000D03*
D29*
X183150000Y-126375000D03*
D30*
X180650000Y-126375000D03*
X178150000Y-126375000D03*
G04 #@! TD*
D10*
G04 #@! TO.C,R33*
X140390000Y-72325000D03*
X140390000Y-73875000D03*
G04 #@! TD*
G04 #@! TO.C,R22*
X192250000Y-125825000D03*
X192250000Y-127375000D03*
G04 #@! TD*
G04 #@! TO.C,R2*
X149650000Y-121325000D03*
X149650000Y-122875000D03*
G04 #@! TD*
D24*
G04 #@! TO.C,C12*
X192300000Y-133975000D03*
X192300000Y-132425000D03*
G04 #@! TD*
D13*
G04 #@! TO.C,D3*
X134650000Y-121312500D03*
X134650000Y-122887500D03*
G04 #@! TD*
D14*
G04 #@! TO.C,R9*
X152650000Y-121590000D03*
X152650000Y-122610000D03*
G04 #@! TD*
D19*
G04 #@! TO.C,C9*
X111900000Y-114528000D03*
X113450000Y-114528000D03*
G04 #@! TD*
D15*
G04 #@! TO.C,C11*
X187400000Y-94850000D03*
X185850000Y-94850000D03*
G04 #@! TD*
D24*
G04 #@! TO.C,R37*
X173410000Y-73875000D03*
X173410000Y-72325000D03*
G04 #@! TD*
D17*
G04 #@! TO.C,J4*
X112250000Y-122180000D03*
D18*
X109710000Y-122180000D03*
X112250000Y-119640000D03*
X109710000Y-119640000D03*
X112250000Y-117100000D03*
X109710000Y-117100000D03*
G04 #@! TD*
D24*
G04 #@! TO.C,R32*
X175950000Y-96375000D03*
X175950000Y-94825000D03*
G04 #@! TD*
D31*
G04 #@! TO.C,R4*
X134150000Y-130080000D03*
X134150000Y-129120000D03*
G04 #@! TD*
D32*
G04 #@! TO.C,R16*
X109225000Y-79850000D03*
X110875000Y-79850000D03*
G04 #@! TD*
D24*
G04 #@! TO.C,R40*
X150550000Y-73875000D03*
X150550000Y-72325000D03*
G04 #@! TD*
D28*
G04 #@! TO.C,RV1*
X123450000Y-133875000D03*
X113850000Y-133875000D03*
D29*
X121150000Y-126375000D03*
D30*
X118650000Y-126375000D03*
X116150000Y-126375000D03*
G04 #@! TD*
D33*
G04 #@! TO.C,J1*
X105955000Y-83990000D03*
X105955000Y-78210000D03*
D34*
X107030000Y-77900000D03*
X107030000Y-78700000D03*
D35*
X107030000Y-79850000D03*
X107030000Y-80850000D03*
X107030000Y-81350000D03*
X107030000Y-82350000D03*
D34*
X107030000Y-83500000D03*
X107030000Y-84300000D03*
X107030000Y-84300000D03*
X107030000Y-83500000D03*
D35*
X107030000Y-82850000D03*
X107030000Y-81850000D03*
X107030000Y-80350000D03*
X107030000Y-79350000D03*
D34*
X107030000Y-78700000D03*
X107030000Y-77900000D03*
D36*
X106455000Y-76780000D03*
D37*
X102275000Y-85420000D03*
X102275000Y-76780000D03*
D36*
X106455000Y-85420000D03*
G04 #@! TD*
D22*
G04 #@! TO.C,C5*
X155150000Y-129120000D03*
X155150000Y-130080000D03*
G04 #@! TD*
D38*
G04 #@! TO.C,Q3*
X108680000Y-131170000D03*
X110580000Y-131170000D03*
X109630000Y-129295000D03*
G04 #@! TD*
D19*
G04 #@! TO.C,R11*
X139900000Y-88325000D03*
X141450000Y-88325000D03*
G04 #@! TD*
D10*
G04 #@! TO.C,R3*
X159650000Y-121325000D03*
X159650000Y-122875000D03*
G04 #@! TD*
G04 #@! TO.C,R36*
X148010000Y-72325000D03*
X148010000Y-73875000D03*
G04 #@! TD*
G04 #@! TO.C,R21*
X193850000Y-125825000D03*
X193850000Y-127375000D03*
G04 #@! TD*
D17*
G04 #@! TO.C,J6*
X187050000Y-111260000D03*
D18*
X189590000Y-111260000D03*
X187050000Y-108720000D03*
X189590000Y-108720000D03*
X187050000Y-106180000D03*
X189590000Y-106180000D03*
X187050000Y-103640000D03*
X189590000Y-103640000D03*
X187050000Y-101100000D03*
X189590000Y-101100000D03*
X187050000Y-98560000D03*
X189590000Y-98560000D03*
G04 #@! TD*
D15*
G04 #@! TO.C,C14*
X122875000Y-117140000D03*
X121325000Y-117140000D03*
G04 #@! TD*
D24*
G04 #@! TO.C,R17*
X107390000Y-126975000D03*
X107390000Y-125425000D03*
G04 #@! TD*
D10*
G04 #@! TO.C,R35*
X145470000Y-72325000D03*
X145470000Y-73875000D03*
G04 #@! TD*
D13*
G04 #@! TO.C,D4*
X164650000Y-121312500D03*
X164650000Y-122887500D03*
G04 #@! TD*
D10*
G04 #@! TO.C,C2*
X188650000Y-72325000D03*
X188650000Y-73875000D03*
G04 #@! TD*
D24*
G04 #@! TO.C,R31*
X170870000Y-96375000D03*
X170870000Y-94825000D03*
G04 #@! TD*
D19*
G04 #@! TO.C,R24*
X178425000Y-122800000D03*
X179975000Y-122800000D03*
G04 #@! TD*
D15*
G04 #@! TO.C,C13*
X122875000Y-115450000D03*
X121325000Y-115450000D03*
G04 #@! TD*
D17*
G04 #@! TO.C,JP1*
X116300000Y-93960000D03*
D18*
X116300000Y-91420000D03*
X116300000Y-88880000D03*
G04 #@! TD*
D31*
G04 #@! TO.C,R6*
X154150000Y-130080000D03*
X154150000Y-129120000D03*
G04 #@! TD*
D10*
G04 #@! TO.C,R26*
X163250000Y-94825000D03*
X163250000Y-96375000D03*
G04 #@! TD*
D39*
G04 #@! TO.C,Q1*
X138087500Y-88325000D03*
X138087500Y-86425000D03*
X136212500Y-87375000D03*
G04 #@! TD*
D40*
G04 #@! TO.C,U1*
X188650000Y-69670000D03*
X186110000Y-69670000D03*
X183570000Y-69670000D03*
X181030000Y-69670000D03*
X178490000Y-69670000D03*
X175950000Y-69670000D03*
X173410000Y-69670000D03*
X170870000Y-69670000D03*
X168330000Y-69670000D03*
X165790000Y-69670000D03*
X163250000Y-69670000D03*
X160710000Y-69670000D03*
X158170000Y-69670000D03*
X155630000Y-69670000D03*
X153090000Y-69670000D03*
X150550000Y-69670000D03*
X148010000Y-69670000D03*
X145470000Y-69670000D03*
X142930000Y-69670000D03*
X140390000Y-69670000D03*
X137850000Y-69670000D03*
X135310000Y-69670000D03*
X188650000Y-92530000D03*
X186110000Y-92530000D03*
X183570000Y-92530000D03*
X181030000Y-92530000D03*
X178490000Y-92530000D03*
X175950000Y-92530000D03*
X173410000Y-92530000D03*
X170870000Y-92530000D03*
X168330000Y-92530000D03*
X165790000Y-92530000D03*
X163250000Y-92530000D03*
X160710000Y-92530000D03*
X158170000Y-92530000D03*
X155630000Y-92530000D03*
X153090000Y-92530000D03*
X150550000Y-92530000D03*
X148010000Y-92530000D03*
X145470000Y-92530000D03*
X142930000Y-92530000D03*
X140390000Y-92530000D03*
X137850000Y-92530000D03*
X135310000Y-92530000D03*
G04 #@! TD*
D11*
G04 #@! TO.C,SW2*
X146923028Y-131450000D03*
X146923028Y-127800000D03*
X152523028Y-127800000D03*
X152523028Y-131450000D03*
G04 #@! TD*
D15*
G04 #@! TO.C,C8*
X110075000Y-114528000D03*
X108525000Y-114528000D03*
G04 #@! TD*
D13*
G04 #@! TO.C,D5*
X144650000Y-121312500D03*
X144650000Y-122887500D03*
G04 #@! TD*
D24*
G04 #@! TO.C,R30*
X165790000Y-96375000D03*
X165790000Y-94825000D03*
G04 #@! TD*
D22*
G04 #@! TO.C,R23*
X172800000Y-120920000D03*
X172800000Y-121880000D03*
G04 #@! TD*
D31*
G04 #@! TO.C,R5*
X144150000Y-130080000D03*
X144150000Y-129120000D03*
G04 #@! TD*
D24*
G04 #@! TO.C,R38*
X160710000Y-73875000D03*
X160710000Y-72325000D03*
G04 #@! TD*
D10*
G04 #@! TO.C,R8*
X181030000Y-94825000D03*
X181030000Y-96375000D03*
G04 #@! TD*
G04 #@! TO.C,R27*
X168330000Y-94825000D03*
X168330000Y-96375000D03*
G04 #@! TD*
D12*
G04 #@! TO.C,Q2*
X121712500Y-120250000D03*
X121712500Y-122150000D03*
X123587500Y-121200000D03*
G04 #@! TD*
D32*
G04 #@! TO.C,R15*
X109225000Y-82850000D03*
X110875000Y-82850000D03*
G04 #@! TD*
D25*
G04 #@! TO.C,C6*
X126170000Y-128100000D03*
X127130000Y-128100000D03*
G04 #@! TD*
G04 #@! TO.C,C7*
X181820000Y-124500000D03*
X182780000Y-124500000D03*
G04 #@! TD*
D10*
G04 #@! TO.C,C1*
X186900000Y-72325000D03*
X186900000Y-73875000D03*
G04 #@! TD*
D19*
G04 #@! TO.C,R13*
X136375000Y-84770000D03*
X137925000Y-84770000D03*
G04 #@! TD*
D11*
G04 #@! TO.C,SW3*
X156850000Y-131450000D03*
X156850000Y-127800000D03*
X162450000Y-127800000D03*
X162450000Y-131450000D03*
G04 #@! TD*
D10*
G04 #@! TO.C,R7*
X178490000Y-94825000D03*
X178490000Y-96375000D03*
G04 #@! TD*
D31*
G04 #@! TO.C,R19*
X107380000Y-129770000D03*
X107380000Y-128810000D03*
G04 #@! TD*
M02*
