M48
; DRILL file {KiCad 6.0.11-2627ca5db0~126~ubuntu22.04.1} date Fri May 26 00:57:04 2023
; FORMAT={-:-/ absolute / metric / decimal}
; #@! TF.CreationDate,2023-05-26T00:57:04+02:00
; #@! TF.GenerationSoftware,Kicad,Pcbnew,6.0.11-2627ca5db0~126~ubuntu22.04.1
; #@! TF.FileFunction,MixedPlating,1,2
FMAT,2
METRIC
; #@! TA.AperFunction,Plated,PTH,ViaDrill
T1C0.300
; #@! TA.AperFunction,Plated,PTH,ViaDrill
T2C0.400
; #@! TA.AperFunction,Plated,PTH,ComponentDrill
T3C0.600
; #@! TA.AperFunction,Plated,PTH,ComponentDrill
T4C0.762
; #@! TA.AperFunction,Plated,PTH,ComponentDrill
T5C0.950
; #@! TA.AperFunction,Plated,PTH,ComponentDrill
T6C1.000
; #@! TA.AperFunction,Plated,PTH,ComponentDrill
T7C1.100
; #@! TA.AperFunction,NonPlated,NPTH,ComponentDrill
T8C0.650
%
G90
G05
T1
X105.225Y-81.85
X105.95Y-80.85
T2
X105.15Y-56.7
X105.15Y-57.7
X105.15Y-58.6
X106.05Y-57.7
X106.05Y-58.6
X106.15Y-56.7
X106.95Y-57.7
X106.95Y-58.6
X107.05Y-56.7
X110.58Y-129.63
X112.65Y-80.1
X112.65Y-83.1
X114.65Y-80.1
X114.65Y-83.1
X114.966Y-113.512
X114.975Y-115.29
X116.475Y-115.29
X116.65Y-80.1
X116.65Y-83.1
X118.65Y-80.1
X118.65Y-83.1
X120.15Y-122.15
X120.65Y-80.1
X120.65Y-83.1
X122.65Y-80.1
X122.65Y-83.1
X124.65Y-80.1
X124.65Y-83.1
X125.3Y-94.9
X125.3Y-96.4
X126.65Y-80.1
X126.8Y-94.9
X126.8Y-96.4
X128.875Y-128.875
X128.875Y-130.375
X129.15Y-80.1
X129.7Y-107.2
X129.7Y-108.7
X130.375Y-128.875
X130.375Y-130.375
X131.2Y-107.2
X131.2Y-108.7
X131.65Y-80.1
X132.65Y-120.35
X134.15Y-80.1
X136.07Y-82.92
X137.01Y-82.92
X137.95Y-82.92
X139.65Y-120.1
X139.65Y-129.6
X140.39Y-75.14
X141.675Y-91.575
X142.65Y-120.35
X142.75Y-81.9
X142.75Y-83.4
X142.93Y-75.14
X144.25Y-81.9
X144.25Y-83.4
X145.47Y-75.14
X147.986Y-108.94
X148.01Y-75.14
X148.986Y-108.94
X149.65Y-120.1
X149.723Y-129.6
X150.526Y-111.734
X150.55Y-75.14
X150.78Y-109.194
X151.768Y-111.706
X151.858Y-108.97
X152.65Y-120.35
X153.09Y-75.15
X153.45Y-112.1
X154.15Y-111.3
X156.9Y-111.1
X158.17Y-97.7
X159.65Y-120.1
X159.65Y-129.6
X160.71Y-75.16
X160.71Y-97.7
X162.65Y-120.35
X163.25Y-97.7
X164.76Y-113.99
X165.79Y-97.7
X168.33Y-97.7
X169.05Y-111.5
X169.05Y-113.0
X169.073Y-128.825
X169.073Y-130.325
X170.55Y-111.5
X170.55Y-113.0
X170.573Y-128.825
X170.573Y-130.325
X170.87Y-97.7
X171.732Y-120.968
X173.41Y-97.7
X173.42Y-75.16
X175.95Y-97.7
X177.58Y-85.15
X177.6Y-121.8
X178.425Y-85.995
X178.49Y-97.7
X179.65Y-110.1
X182.4Y-74.6
X182.4Y-76.1
X186.55Y-83.9
X186.55Y-85.4
X188.0Y-137.5
X188.05Y-83.9
X188.05Y-85.4
X192.25Y-124.6
X193.85Y-124.6
X195.7Y-125.1
X196.25Y-133.1
X197.3Y-125.1
X197.725Y-130.6
T4
X135.31Y-69.67
X135.31Y-92.53
X137.85Y-69.67
X137.85Y-92.53
X140.39Y-69.67
X140.39Y-92.53
X142.93Y-69.67
X142.93Y-92.53
X145.47Y-69.67
X145.47Y-92.53
X148.01Y-69.67
X148.01Y-92.53
X150.55Y-69.67
X150.55Y-92.53
X153.09Y-69.67
X153.09Y-92.53
X155.63Y-69.67
X155.63Y-92.53
X158.17Y-69.67
X158.17Y-92.53
X160.71Y-69.67
X160.71Y-92.53
X163.25Y-69.67
X163.25Y-92.53
X165.79Y-69.67
X165.79Y-92.53
X168.33Y-69.67
X168.33Y-92.53
X170.87Y-69.67
X170.87Y-92.53
X173.41Y-69.67
X173.41Y-92.53
X175.95Y-69.67
X175.95Y-92.53
X178.49Y-69.67
X178.49Y-92.53
X181.03Y-69.67
X181.03Y-92.53
X183.57Y-69.67
X183.57Y-92.53
X186.11Y-69.67
X186.11Y-92.53
X188.65Y-69.67
X188.65Y-92.53
T5
X190.3Y-117.1
X190.3Y-119.6
X190.3Y-122.1
T6
X109.71Y-98.56
X109.71Y-101.1
X109.71Y-103.64
X109.71Y-106.18
X109.71Y-108.72
X109.71Y-111.26
X109.71Y-117.1
X109.71Y-119.64
X109.71Y-122.18
X112.25Y-98.56
X112.25Y-101.1
X112.25Y-103.64
X112.25Y-106.18
X112.25Y-108.72
X112.25Y-111.26
X112.25Y-117.1
X112.25Y-119.64
X112.25Y-122.18
X116.15Y-126.375
X116.3Y-88.88
X116.3Y-91.42
X116.3Y-93.96
X118.65Y-126.375
X121.15Y-126.375
X178.15Y-126.375
X180.65Y-126.375
X181.65Y-115.06
X181.65Y-117.6
X181.65Y-120.14
X183.15Y-126.375
X187.05Y-98.56
X187.05Y-101.1
X187.05Y-103.64
X187.05Y-106.18
X187.05Y-108.72
X187.05Y-111.26
X189.59Y-98.56
X189.59Y-101.1
X189.59Y-103.64
X189.59Y-106.18
X189.59Y-108.72
X189.59Y-111.26
T8
X105.955Y-78.21
X105.955Y-83.99
T3
X102.675Y-76.78G85X101.875Y-76.78
G05
X102.675Y-85.42G85X101.875Y-85.42
G05
X107.005Y-76.78G85X105.905Y-76.78
G05
X107.005Y-85.42G85X105.905Y-85.42
G05
T7
X113.85Y-133.525G85X113.85Y-134.225
G05
X123.45Y-133.525G85X123.45Y-134.225
G05
X175.85Y-133.525G85X175.85Y-134.225
G05
X185.45Y-133.525G85X185.45Y-134.225
G05
T0
M30
