G04 #@! TF.GenerationSoftware,KiCad,Pcbnew,6.0.11-2627ca5db0~126~ubuntu22.04.1*
G04 #@! TF.CreationDate,2023-05-26T00:57:04+02:00*
G04 #@! TF.ProjectId,ELKS,454c4b53-2e6b-4696-9361-645f70636258,rev?*
G04 #@! TF.SameCoordinates,Original*
G04 #@! TF.FileFunction,Profile,NP*
%FSLAX46Y46*%
G04 Gerber Fmt 4.6, Leading zero omitted, Abs format (unit mm)*
G04 Created by KiCad (PCBNEW 6.0.11-2627ca5db0~126~ubuntu22.04.1) date 2023-05-26 00:57:04*
%MOMM*%
%LPD*%
G01*
G04 APERTURE LIST*
G04 #@! TA.AperFunction,Profile*
%ADD10C,0.100000*%
G04 #@! TD*
G04 APERTURE END LIST*
D10*
X107568961Y-46239978D02*
G75*
G03*
X108510000Y-47190000I473739J-471822D01*
G01*
X108509993Y-59010007D02*
G75*
G03*
X108750000Y-59100000I226307J238507D01*
G01*
X107568961Y-64219978D02*
G75*
G03*
X108510000Y-65170000I473739J-471822D01*
G01*
X197400000Y-138100000D02*
G75*
G03*
X197400000Y-138100000I-1750000J0D01*
G01*
X108509978Y-59010022D02*
G75*
G03*
X107568983Y-59960000I-467278J-478178D01*
G01*
X107650000Y-63980000D02*
X107650000Y-60200000D01*
X119650000Y-48100000D02*
G75*
G03*
X118650000Y-47100000I-1000000J0D01*
G01*
X108750000Y-65080010D02*
G75*
G03*
X108510000Y-65170000I-13700J-328490D01*
G01*
X107569009Y-64220022D02*
G75*
G03*
X107650000Y-63980000I-270709J225022D01*
G01*
X118649999Y-59099999D02*
G75*
G03*
X119649999Y-58099999I1J999999D01*
G01*
X196650000Y-65100000D02*
X108750000Y-65080000D01*
X105400000Y-138100000D02*
G75*
G03*
X105400000Y-138100000I-1750000J0D01*
G01*
X107650000Y-45090000D02*
X107650000Y-46000000D01*
X105400000Y-46100000D02*
G75*
G03*
X105400000Y-46100000I-1750000J0D01*
G01*
X102650000Y-142100000D02*
X196650000Y-142100000D01*
X107649968Y-60199999D02*
G75*
G03*
X107568983Y-59960000I-351068J15199D01*
G01*
X104650000Y-42099999D02*
X102650000Y-42100000D01*
X199650000Y-139100000D02*
X199650000Y-68100000D01*
X119649999Y-58099999D02*
X119650000Y-48100000D01*
X118650000Y-47100000D02*
X108750000Y-47100000D01*
X199650000Y-68100000D02*
G75*
G03*
X196650000Y-65100000I-3000000J0D01*
G01*
X99650000Y-45100000D02*
X99650000Y-139100000D01*
X108750000Y-59100000D02*
X118649999Y-59099999D01*
X107649984Y-45090000D02*
G75*
G03*
X104650000Y-42099999I-2999984J-10000D01*
G01*
X99650000Y-139100000D02*
G75*
G03*
X102650000Y-142100000I3000000J0D01*
G01*
X107568956Y-46239977D02*
G75*
G03*
X107650000Y-46000000I-270356J224977D01*
G01*
X197400000Y-69100000D02*
G75*
G03*
X197400000Y-69100000I-1750000J0D01*
G01*
X102650000Y-42100000D02*
G75*
G03*
X99650000Y-45100000I0J-3000000D01*
G01*
X108749999Y-47100027D02*
G75*
G03*
X108510000Y-47190000I-13799J-328273D01*
G01*
X196650000Y-142100000D02*
G75*
G03*
X199650000Y-139100000I0J3000000D01*
G01*
M02*
