<?xml version="1.0" encoding="UTF-8" standalone="no"?>
<svg
   id="图层_1"
   data-name="图层 1"
   viewBox="0 0 137.32436 50.084763"
   width="4289.917"
   height="1571.1"
   version="1.1"
   sodipodi:docname="Espressif_Logo.svg"
   inkscape:export-filename="Espressif_Logo.jpg"
   inkscape:export-xdpi="26.299999"
   inkscape:export-ydpi="26.299999"
   inkscape:version="1.2.2 (b0a84865, 2022-12-01)"
   xmlns:inkscape="http://www.inkscape.org/namespaces/inkscape"
   xmlns:sodipodi="http://sodipodi.sourceforge.net/DTD/sodipodi-0.dtd"
   xmlns="http://www.w3.org/2000/svg"
   xmlns:svg="http://www.w3.org/2000/svg"
   xmlns:rdf="http://www.w3.org/1999/02/22-rdf-syntax-ns#"
   xmlns:cc="http://creativecommons.org/ns#"
   xmlns:dc="http://purl.org/dc/elements/1.1/">
  <sodipodi:namedview
     id="namedview217"
     pagecolor="#ffffff"
     bordercolor="#666666"
     borderopacity="1.0"
     inkscape:showpageshadow="2"
     inkscape:pageopacity="0.0"
     inkscape:pagecheckerboard="0"
     inkscape:deskcolor="#d1d1d1"
     showgrid="false"
     inkscape:zoom="0.19604103"
     inkscape:cx="2073.5455"
     inkscape:cy="466.73903"
     inkscape:window-width="1500"
     inkscape:window-height="875"
     inkscape:window-x="6"
     inkscape:window-y="36"
     inkscape:window-maximized="0"
     inkscape:current-layer="图层_1" />
  <defs
     id="defs184">
    <style
       id="style182">.cls-1{fill:#e7352c;}.cls-2{fill:#333;}</style>
  </defs>
  <title
     id="title186">导航栏-菜单-logo</title>
  <rect
     style="vector-effect:non-scaling-stroke;fill:#ffffff;stroke:#ffffff;stroke-width:0.032011;-inkscape-stroke:hairline"
     id="rect1307"
     width="137.32436"
     height="50.292416"
     x="0"
     y="-0.04361644" />
  <path
     class="cls-1"
     d="m 17.053796,29.529398 a 1.48,1.48 0 1 1 -1.48,-1.48 1.48,1.48 0 0 1 1.48,1.48"
     id="path188" />
  <path
     class="cls-1"
     d="m 29.963796,27.989398 a 15.34,15.34 0 0 0 -13,-13 9.73,9.73 0 0 0 -2.15,1.55 v 1.43 a 12.18,12.18 0 0 1 12.17,12.16 h 1.43 a 10.25,10.25 0 0 0 1.55,-2.14"
     id="path190" />
  <path
     class="cls-1"
     d="m 31.123796,23.499398 a 9.62,9.62 0 0 0 -9.67,-9.62 c -0.34,0 -0.67,0 -1,0.05 l -0.22,0.64 a 16.55,16.55 0 0 1 10.14,10.13 l 0.64,-0.23 c 0,-0.32 0.06,-0.64 0.06,-1"
     id="path192" />
  <path
     class="cls-1"
     d="m 21.563796,34.879398 a 11.44,11.44 0 0 1 -11.44,-11.39 11.36,11.36 0 0 1 3.35,-8.09 l 0.65,0.61 a 10.56,10.56 0 0 0 0,15 10.56,10.56 0 0 0 15,0 l 0.61,0.61 a 11.35,11.35 0 0 1 -8.17,3.26"
     id="path194" />
  <path
     class="cls-1"
     d="m 21.433796,30.789398 a 6.65,6.65 0 0 0 -2.61,-5.91 6.51,6.51 0 0 0 -3.35,-1.36 0.61,0.61 0 0 1 -0.53,-0.64 0.59,0.59 0 0 1 0.65,-0.54 7.85,7.85 0 0 1 7,8.58 6.85,6.85 0 0 1 -0.26,1.35 l 1.74,0.49 a 9.66,9.66 0 0 0 1.5,-0.57 10.64,10.64 0 0 0 0.19,-2.05 11,11 0 0 0 -9.33,-10.86 4.84,4.84 0 0 0 -1.75,0 3.81,3.81 0 0 0 -1.89,1.17 3.74,3.74 0 0 0 1.67,6 8.66,8.66 0 0 0 0.94,0.17 v 0 a 3.51,3.51 0 0 1 2.92,3.46 3.47,3.47 0 0 1 -0.56,1.89 l 1.2,0.77 a 8.91,8.91 0 0 0 1.8,0.3 6.58,6.58 0 0 0 0.66,-2.3"
     id="path196" />
  <rect
     class="cls-2"
     x="114.30379"
     y="17.049398"
     width="2.21"
     height="14.7"
     id="rect198" />
  <path
     class="cls-2"
     d="m 78.513796,25.609398 a 2.51,2.51 0 0 0 1.46,-2.41 v -3.51 a 2.64,2.64 0 0 0 -0.78,-1.95 2.6,2.6 0 0 0 -1.78,-0.7 h -6.38 v 14.73 h 2.22 v -5.89 h 2.27 a 2,2 0 0 1 2,1.74 l 0.87,4.17 h 2.42 l -0.94,-3.91 a 3,3 0 0 0 -1.36,-2.22 m -5.26,-6.54 v 0 h 3.8 a 0.75,0.75 0 0 1 0.71,0.84 v 3 a 0.75,0.75 0 0 1 -0.71,0.84 h -3.8 z"
     id="path200" />
  <path
     class="cls-2"
     d="m 39.213796,17.749398 a 2.67,2.67 0 0 0 -0.78,2 v 9.4 a 2.64,2.64 0 0 0 0.78,1.95 2.62,2.62 0 0 0 1.78,0.7 h 6 v -2.1 h -5.6 a 0.76,0.76 0 0 1 -0.72,-0.84 v -3.78 h 5.45 v -2.06 h -5.48 v -3.06 a 0.76,0.76 0 0 1 0.72,-0.84 h 5.6 v -2.07 h -6 a 2.66,2.66 0 0 0 -1.78,0.7"
     id="path202" />
  <path
     class="cls-2"
     d="m 121.3638,19.119398 h 5.6 v -2.07 h -6 a 2.66,2.66 0 0 0 -1.78,0.7 2.71,2.71 0 0 0 -0.78,2 v 12 h 2.21 v -6.67 h 5.51 v -2.06 h -5.52 v -3.06 a 0.76,0.76 0 0 1 0.72,-0.84"
     id="path204" />
  <path
     class="cls-2"
     d="m 55.323796,23.019398 h -3.43 a 0.79,0.79 0 0 1 -0.77,-0.79 v -2.27 a 0.75,0.75 0 0 1 0.71,-0.84 h 5.49 v -2.07 h -5.87 a 2.66,2.66 0 0 0 -1.78,0.7 2.67,2.67 0 0 0 -0.78,2 v 3.01 a 2.59,2.59 0 0 0 2.58,2.59 h 3.44 a 0.79,0.79 0 0 1 0.79,0.79 v 2.74 a 0.76,0.76 0 0 1 -0.72,0.84 h -6.09 v 2.07 h 6.46 a 2.55,2.55 0 0 0 2.56,-2.66 v -3.5 a 2.58,2.58 0 0 0 -2.59,-2.61"
     id="path206" />
  <path
     class="cls-2"
     d="m 82.773796,17.749398 a 2.67,2.67 0 0 0 -0.78,2 v 9.4 a 2.64,2.64 0 0 0 0.78,1.95 2.62,2.62 0 0 0 1.78,0.7 h 6 v -2.1 h -5.6 a 0.75,0.75 0 0 1 -0.71,-0.84 v -3.78 h 5.51 v -2.06 h -5.55 v -3.06 a 0.75,0.75 0 0 1 0.71,-0.84 h 5.6 v -2.07 h -6 a 2.66,2.66 0 0 0 -1.78,0.7"
     id="path208" />
  <path
     class="cls-2"
     d="m 98.883796,23.019398 h -3.43 a 0.79,0.79 0 0 1 -0.79,-0.79 v -2.27 a 0.75,0.75 0 0 1 0.71,-0.84 h 5.510004 v -2.07 h -5.880004 a 2.64,2.64 0 0 0 -1.77,0.7 2.67,2.67 0 0 0 -0.78,2 v 3.01 a 2.58,2.58 0 0 0 2.58,2.59 h 3.43 a 0.79,0.79 0 0 1 0.79,0.79 v 2.74 a 0.75,0.75 0 0 1 -0.71,0.84 h -6.09 v 2.07 h 6.46 a 2.6,2.6 0 0 0 1.770004,-0.71 2.63,2.63 0 0 0 0.79,-2 v -3.5 a 2.58,2.58 0 0 0 -2.590004,-2.58"
     id="path210" />
  <path
     class="cls-2"
     d="m 109.7238,23.019398 h -3.43 a 0.79,0.79 0 0 1 -0.79,-0.79 v -2.27 a 0.75,0.75 0 0 1 0.71,-0.84 h 5.51 v -2.07 h -5.87 a 2.66,2.66 0 0 0 -1.78,0.7 2.67,2.67 0 0 0 -0.78,2 v 3.01 a 2.59,2.59 0 0 0 2.58,2.59 h 3.44 a 0.79,0.79 0 0 1 0.79,0.79 v 2.74 a 0.76,0.76 0 0 1 -0.72,0.84 h -6.09 v 2.07 h 6.46 a 2.55,2.55 0 0 0 2.56,-2.66 v -3.5 a 2.58,2.58 0 0 0 -2.59,-2.61"
     id="path212" />
  <path
     class="cls-2"
     d="m 66.603796,17.039398 h -6.69 v 14.73 h 2.21 v -5.72 h 4.48 a 2.57,2.57 0 0 0 1.77,-0.7 2.63,2.63 0 0 0 0.79,-2 v -3.66 a 2.65,2.65 0 0 0 -0.79,-1.95 2.57,2.57 0 0 0 -1.77,-0.7 m 0.34,6.11 a 0.75,0.75 0 0 1 -0.71,0.84 h -4.11 v -4.89 h 4.11 a 0.75,0.75 0 0 1 0.71,0.84 z"
     id="path214" />
  <metadata
     id="metadata1253">
    <rdf:RDF>
      <cc:Work
         rdf:about="">
        <dc:title>导航栏-菜单-logo</dc:title>
      </cc:Work>
    </rdf:RDF>
  </metadata>
</svg>
