<?xml version="1.0" encoding="UTF-8" standalone="no"?>
<!-- Created with Inkscape (http://www.inkscape.org/) -->

<svg
   version="1.1"
   id="svg182"
   width="807.48163"
   height="131.14807"
   viewBox="0 0 807.48161 131.14807"
   sodipodi:docname="robotarna_logo_edit-full (1).svg"
   inkscape:version="1.2.2 (732a01da63, 2022-12-09)"
   xmlns:inkscape="http://www.inkscape.org/namespaces/inkscape"
   xmlns:sodipodi="http://sodipodi.sourceforge.net/DTD/sodipodi-0.dtd"
   xmlns="http://www.w3.org/2000/svg"
   xmlns:svg="http://www.w3.org/2000/svg">
  <defs
     id="defs186">
    <clipPath
       clipPathUnits="userSpaceOnUse"
       id="clipPath198">
      <path
         d="M 0,595.28 H 841.89 V 0 H 0 Z"
         id="path196" />
    </clipPath>
  </defs>
  <sodipodi:namedview
     id="namedview184"
     pagecolor="#ffffff"
     bordercolor="#666666"
     borderopacity="1.0"
     inkscape:showpageshadow="2"
     inkscape:pageopacity="0.0"
     inkscape:pagecheckerboard="0"
     inkscape:deskcolor="#d1d1d1"
     showgrid="false"
     inkscape:zoom="1.932704"
     inkscape:cx="419.61936"
     inkscape:cy="55.104145"
     inkscape:window-width="1920"
     inkscape:window-height="1001"
     inkscape:window-x="-9"
     inkscape:window-y="-9"
     inkscape:window-maximized="1"
     inkscape:current-layer="g190">
    <inkscape:page
       x="0"
       y="0"
       id="page188"
       width="807.48163"
       height="131.14807" />
  </sodipodi:namedview>
  <g
     id="g190"
     inkscape:groupmode="layer"
     inkscape:label="Page 1"
     transform="matrix(1.3333333,0,0,-1.3333333,-229.14784,650.57349)">
    <g
       id="g192"
       style="fill:none"
       transform="matrix(0.62290895,0,0,0.62290895,112.05932,169.14165)">
      <g
         id="g194"
         clip-path="url(#clipPath198)"
         style="fill:none">
        <g
           id="g200"
           transform="translate(252.9087,432.8208)"
           style="fill:none">
          <path
             d="m 0,0 c 0,-43.052 -34.9,-77.953 -77.953,-77.953 -43.052,0 -77.952,34.901 -77.952,77.953 0,43.053 34.9,77.953 77.952,77.953 C -34.9,77.953 0,43.053 0,0"
             style="fill:none;fill-opacity:1;fill-rule:nonzero;stroke:none"
             id="path202" />
        </g>
        <g
           id="g204"
           transform="translate(252.9087,432.8208)"
           style="fill:none">
          <path
             d="m 0,0 c 0,-43.052 -34.9,-77.953 -77.953,-77.953 -43.052,0 -77.952,34.901 -77.952,77.953 0,43.053 34.9,77.953 77.952,77.953 C -34.9,77.953 0,43.053 0,0 Z"
             style="fill:none;stroke:#000000;stroke-width:2;stroke-linecap:butt;stroke-linejoin:miter;stroke-miterlimit:10;stroke-dasharray:none;stroke-opacity:1"
             id="path206" />
        </g>
        <g
           id="g208"
           transform="translate(217.917,434.6079)"
           style="fill:none">
          <path
             d="m 0,0 c 0,-0.677 12.67,-3.091 12.583,-4.583 -0.248,-4.276 -2.341,-12.151 -3.75,-16 -0.578,-1.582 -12.702,1.966 -13.455,0.478 -2.538,-5.016 -4.337,-9.086 -8.545,-12.728 -1.281,-1.11 5.887,-11.539 5.25,-12 -3.605,-2.616 -12.754,-8.022 -17.083,-9.417 -1.55,-0.5 -6.378,11.823 -8,11.5 -2.708,-0.539 -6.994,-0.892 -9.859,-0.892 -2.725,0 -5.389,0.254 -7.972,0.74 -1.254,0.237 -6.456,-12.191 -7.669,-11.848 -4.781,1.352 -14.306,6.266 -18.25,9.083 -0.796,0.568 6.754,11.714 6,12.334 -4.576,3.761 -7.634,7.873 -10.337,13.208 -0.467,0.922 -13.846,-2.083 -14.247,-1.125 -1.766,4.219 -2.502,11.889 -2.833,16.667 -0.069,0.996 12.465,2.84 12.465,3.854 0,6.298 1.354,12.279 3.787,17.667 0.423,0.936 -9.904,9.081 -9.418,9.979 2.485,4.592 7.25,10.277 11.166,13.666 0.902,0.781 11.151,-7.3 12.116,-6.597 4.411,3.218 9.459,5.612 14.919,6.958 0.924,0.227 1.019,13.306 1.965,13.473 2.425,0.426 13.954,0 16.5,0 2.168,0 0.782,-13.155 2.048,-13.466 5.721,-1.405 10.99,-3.961 15.549,-7.409 1.069,-0.809 10.916,8.278 11.903,7.375 3.296,-3.014 8.772,-9.926 11,-13.834 C 6.499,25.916 -4.356,18.16 -3.799,16.926 -1.369,11.542 0,6.293 0,0"
             style="fill:none;fill-opacity:1;fill-rule:nonzero;stroke:none"
             id="path210" />
        </g>
        <g
           id="g212"
           transform="translate(217.917,434.6079)"
           style="fill:#000000">
          <path
             d="m 0,0 c 0,-0.677 12.67,-3.091 12.583,-4.583 -0.248,-4.276 -2.341,-12.151 -3.75,-16 -0.578,-1.582 -12.702,1.966 -13.455,0.478 -2.538,-5.016 -4.337,-9.086 -8.545,-12.728 -1.281,-1.11 5.887,-11.539 5.25,-12 -3.605,-2.616 -12.754,-8.022 -17.083,-9.417 -1.55,-0.5 -6.378,11.823 -8,11.5 -2.708,-0.539 -6.994,-0.892 -9.859,-0.892 -2.725,0 -5.389,0.254 -7.972,0.74 -1.254,0.237 -6.456,-12.191 -7.669,-11.848 -4.781,1.352 -14.306,6.266 -18.25,9.083 -0.796,0.568 6.754,11.714 6,12.334 -4.576,3.761 -7.634,7.873 -10.337,13.208 -0.467,0.922 -13.846,-2.083 -14.247,-1.125 -1.766,4.219 -2.502,11.889 -2.833,16.667 -0.069,0.996 12.465,2.84 12.465,3.854 0,6.298 1.354,12.279 3.787,17.667 0.423,0.936 -9.904,9.081 -9.418,9.979 2.485,4.592 7.25,10.277 11.166,13.666 0.902,0.781 11.151,-7.3 12.116,-6.597 4.411,3.218 9.459,5.612 14.919,6.958 0.924,0.227 1.019,13.306 1.965,13.473 2.425,0.426 13.954,0 16.5,0 2.168,0 0.782,-13.155 2.048,-13.466 5.721,-1.405 10.99,-3.961 15.549,-7.409 1.069,-0.809 10.916,8.278 11.903,7.375 3.296,-3.014 8.772,-9.926 11,-13.834 C 6.499,25.916 -4.356,18.16 -3.799,16.926 -1.369,11.542 0,6.293 0,0 Z"
             style="fill:#000000;stroke:#000000;stroke-width:1;stroke-linecap:butt;stroke-linejoin:miter;stroke-miterlimit:10;stroke-dasharray:none;stroke-opacity:1"
             id="path214" />
        </g>
        <g
           id="g216"
           transform="translate(182.6738,433.188)"
           style="fill:none">
          <path
             d="m 0,0 c 0,-3.914 -3.173,-7.087 -7.087,-7.087 -3.914,0 -7.086,3.173 -7.086,7.087 0,3.914 3.172,7.086 7.086,7.086 C -3.173,7.086 0,3.914 0,0"
             style="fill:none;fill-opacity:1;fill-rule:nonzero;stroke:none"
             id="path218" />
        </g>
        <g
           id="g220"
           transform="translate(182.6738,433.188)"
           style="fill:#ffffff">
          <path
             d="m 0,0 c 0,-3.914 -3.173,-7.087 -7.087,-7.087 -3.914,0 -7.086,3.173 -7.086,7.087 0,3.914 3.172,7.086 7.086,7.086 C -3.173,7.086 0,3.914 0,0 Z"
             style="fill:#ffffff;stroke:#000000;stroke-width:1;stroke-linecap:butt;stroke-linejoin:miter;stroke-miterlimit:10;stroke-dasharray:none;stroke-opacity:1"
             id="path222" />
        </g>
      </g>
    </g>
    <g
       aria-label="ROBOTÃRNA"
       transform="matrix(1,0,0,-1,289.9658,405.3003)"
       id="text226"
       style="font-size:92.77px;font-family:'Myriad Pro';-inkscape-font-specification:MyriadPro-Regular">
      <path
         d="m 7.0505197,0 h 8.0709893 v -27.088839 h 7.60714 c 7.32883,0.27831 10.76132,3.52526 12.61672,12.15287 1.66986,7.7926793 3.06141,13.0805691 4.08188,14.935969 h 8.349299 c -1.29878,-2.4120199 -2.7831,-8.4420697 -4.82404,-17.162449 -1.48432,-6.4939 -4.360189,-10.94686 -9.091459,-12.61672 v -0.27831 c 6.4939,-2.22648 11.689019,-7.69991 11.689019,-15.863669 0,-4.91681 -1.8554,-9.18423 -4.916809,-11.96733 -3.80357,-3.43249 -9.46254,-5.10235 -18.09015,-5.10235 -5.47343,0 -11.410709,0.55662 -15.4925893,1.29878 z m 8.0709893,-56.033078 c 1.39155,-0.37108 4.08188,-0.64939 7.97822,-0.64939 8.53484,0 14.37935,3.52526 14.37935,11.59625 0,7.143289 -5.47343,11.874559 -14.10104,11.874559 h -8.25653 z"
         id="path692" />
      <path
         d="m 82.472527,-63.640218 c -16.698599,0 -28.944239,12.9878 -28.944239,32.840579 0,18.925079 11.50348,31.820109 28.109309,31.820109 15.956439,0 29.037013,-11.50348 29.037013,-32.933349 0,-18.646769 -11.039634,-31.727339 -28.202083,-31.727339 z m -0.27831,6.58667 c 13.451649,0 19.945553,12.9878 19.945553,25.511749 0,14.19381 -7.236064,25.9755992 -20.038323,25.9755992 -12.80226,0 -20.038319,-11.9673292 -20.038319,-25.4189792 0,-13.637189 6.679439,-26.068369 20.131089,-26.068369 z"
         id="path694" />
      <path
         d="m 121.15762,-0.18553999 c 2.69033,0.37107998 6.95775,0.74215997 12.52395,0.74215997 10.2047,0 17.25522,-1.85539998 21.52264,-5.84450978 3.24695,-2.9686399 5.38066,-7.1432902 5.38066,-12.5239492 0,-9.277 -6.95775,-14.19381 -12.89503,-15.58536 v -0.27831 c 6.4939,-2.31925 10.57578,-7.60714 10.57578,-13.729959 0,-4.91681 -2.04094,-8.62761 -5.28789,-11.03963 -3.80357,-3.15418 -8.99869,-4.54573 -17.06968,-4.54573 -5.5662,0 -11.22517,0.55662 -14.75043,1.39155 z m 8.07099,-56.03307801 c 1.29878,-0.27831 3.43249,-0.55662 7.14329,-0.55662 8.16376,0 13.63719,2.96864 13.63719,10.2047 0,6.030049 -5.00958,10.575779 -13.45165,10.575779 h -7.32883 z m 0,26.253909 h 6.67944 c 8.81315,0 16.14198,3.61803 16.14198,12.0601 0,9.0914593 -7.69991,12.1528692 -16.04921,12.1528692 -2.87587,0 -5.10235,-0.09277 -6.77221,-0.37108 z"
         id="path696" />
      <path
         d="m 196.6724,-63.640218 c -16.6986,0 -28.94424,12.9878 -28.94424,32.840579 0,18.925079 11.50348,31.820109 28.10931,31.820109 15.95644,0 29.03701,-11.50348 29.03701,-32.933349 0,-18.646769 -11.03963,-31.727339 -28.20208,-31.727339 z m -0.27831,6.58667 c 13.45165,0 19.94555,12.9878 19.94555,25.511749 0,14.19381 -7.23606,25.9755992 -20.03832,25.9755992 -12.80226,0 -20.03832,-11.9673292 -20.03832,-25.4189792 0,-13.637189 6.67944,-26.068369 20.13109,-26.068369 z"
         id="path698" />
      <path
         d="m 244.9128,0 h 8.16376 v -55.661998 h 19.11062 v -6.86498 h -46.29223 v 6.86498 h 19.01785 z"
         id="path700" />
      <path
         d="M 304.47114,-19.667239 311.15058,0 h 8.62761 l -21.3371,-62.526978 h -9.64808 L 267.45591,0 h 8.3493 l 6.4939,-19.667239 z m -20.50217,-6.30836 6.12282,-18.090149 c 1.29878,-3.80357 2.22648,-7.69991 3.15418,-11.31794 h 0.18554 c 0.9277,3.61803 1.8554,7.32883 3.24695,11.41071 l 6.21559,17.997379 z m 13.45165,-50.745188 -8.62761,10.854089 h 6.58667 l 11.87456,-10.854089 z"
         id="path702" />
      <path
         d="m 328.96242,0 h 8.07099 v -27.088839 h 7.60713 c 7.32883,0.27831 10.76132,3.52526 12.61672,12.15287 1.66986,7.7926793 3.06141,13.0805691 4.08188,14.935969 h 8.3493 c -1.29878,-2.4120199 -2.7831,-8.4420697 -4.82404,-17.162449 -1.48432,-6.4939 -4.36019,-10.94686 -9.09146,-12.61672 v -0.27831 c 6.4939,-2.22648 11.68902,-7.69991 11.68902,-15.863669 0,-4.91681 -1.8554,-9.18423 -4.91681,-11.96733 -3.80357,-3.43249 -9.46254,-5.10235 -18.09015,-5.10235 -5.47342,0 -11.4107,0.55662 -15.49258,1.29878 z m 8.07099,-56.033078 c 1.39155,-0.37108 4.08188,-0.64939 7.97821,-0.64939 8.53484,0 14.37935,3.52526 14.37935,11.59625 0,7.143289 -5.47343,11.874559 -14.10104,11.874559 h -8.25652 z"
         id="path704" />
      <path
         d="m 386.47983,0 v -26.717759 c 0,-10.39024 -0.0928,-17.904609 -0.55662,-25.790059 l 0.27831,-0.09277 c 3.06141,6.77221 7.23606,13.915499 11.59625,20.873249 L 417.65055,0 h 8.16376 v -62.526978 h -7.60714 v 26.161139 c 0,9.74085 0.18554,17.34799 0.9277,25.697289 l -0.27831,0.09277 c -2.87587,-6.401129 -6.58667,-12.987799 -11.1324,-20.316629 l -19.94555,-31.634569 h -8.90592 V 0 Z"
         id="path706" />
      <path
         d="M 472.19929,-19.667239 478.87873,0 h 8.62761 l -21.3371,-62.526978 h -9.64808 L 435.18406,0 h 8.3493 l 6.4939,-19.667239 z m -20.50217,-6.30836 6.12282,-18.090149 c 1.29878,-3.80357 2.22648,-7.69991 3.15418,-11.31794 h 0.18554 c 0.9277,3.61803 1.8554,7.32883 3.24695,11.41071 l 6.21559,17.997379 z"
         id="path708" />
    </g>
  </g>
</svg>
